<svg width="34" height="30" fill="none" xmlns="http://www.w3.org/2000/svg"><path d="M10.483 14.383H2.666C2.8 6.6 4.333 5.316 9.116 2.483c.55-.333.734-1.033.4-1.6a1.144 1.144 0 00-1.583-.4C2.3 3.816.333 5.85.333 15.533v8.984c0 2.85 2.317 5.15 5.15 5.15h5c2.933 0 5.15-2.217 5.15-5.15v-5c0-2.917-2.217-5.134-5.15-5.134zm18.033 0H20.7c.133-7.783 1.666-9.067 6.45-11.9.55-.333.733-1.033.4-1.6a1.164 1.164 0 00-1.6-.4c-5.634 3.333-7.6 5.367-7.6 15.067v8.983c0 2.85 2.316 5.15 5.15 5.15h5c2.933 0 5.15-2.216 5.15-5.15v-5c.016-2.933-2.2-5.15-5.134-5.15z" fill="#CF3"/></svg>